<svg xmlns="http://www.w3.org/2000/svg" viewBox="0 0 48 48">
  <path fill="#33D375" d="M33,8c0-2.209-1.791-4-4-4s-4,1.791-4,4v9h8V8z"/>
  <path fill="#33D375" d="M8,33c-2.209,0-4-1.791-4-4s1.791-4,4-4h9v8H8z"/>
  <path fill="#40C4FF" d="M15,8c0-2.209-1.791-4-4-4s-4,1.791-4,4v9h8V8z"/>
  <path fill="#40C4FF" d="M40,33c-2.209,0-4-1.791-4-4s1.791-4,4-4h8v8H40z"/>
  <path fill="#E91E63" d="M33,40c0-2.209-1.791-4-4-4s-4,1.791-4,4v8h8V40z"/>
  <path fill="#E91E63" d="M8,15c-2.209,0-4-1.791-4-4s1.791-4,4-4h9v8H8z"/>
  <path fill="#FDD835" d="M15,40c0-2.209-1.791-4-4-4s-4,1.791-4,4v8h8V40z"/>
  <path fill="#FDD835" d="M40,15c-2.209,0-4-1.791-4-4s1.791-4,4-4h8v8H40z"/>
</svg>

