<svg xmlns="http://www.w3.org/2000/svg" viewBox="0 0 48 48">
  <path fill="#fff" d="M4.868,43.303l2.694-9.835C5.9,30.59,5.026,27.324,5.027,23.979C5.032,13.514,13.548,5,24.014,5c5.079,0.002,9.845,1.979,13.43,5.566c3.584,3.588,5.558,8.356,5.556,13.428c-0.004,10.465-8.522,18.98-18.986,18.98c-0.001,0,0,0,0,0h-0.008c-3.177-0.001-6.3-0.798-9.073-2.311L4.868,43.303z"/>
  <path fill="#fff" d="M4.868,43.803c-0.132,0-0.26-0.052-0.355-0.148c-0.137-0.138-0.172-0.35-0.086-0.525l2.75-10.05c-1.461-2.534-2.229-5.398-2.229-8.324c0.002-9.19,7.48-16.667,16.67-16.667c4.455,0.002,8.644,1.736,11.799,4.892c3.155,3.157,4.89,7.347,4.888,11.802c-0.004,9.189-7.482,16.667-16.672,16.667h-0.007c-2.793-0.001-5.533-0.704-7.965-2.037L4.868,43.803z"/>
  <path fill="#40C351" d="M24.014,5C13.998,5,5.932,13.064,5.927,23.081c-0.001,3.299,0.849,6.521,2.471,9.357l0.365,0.58l-1.548,5.649l5.8-1.521l0.561,0.333c2.715,1.61,5.804,2.462,8.932,2.463h0.007c10.015,0,18.083-8.166,18.087-18.183c0.002-4.856-1.888-9.424-5.319-12.857C33.438,6.889,28.87,5,24.014,5z"/>
  <path fill="#fff" d="M35.176,12.832c-2.98-2.982-6.941-4.625-11.157-4.626c-8.704,0-15.783,7.076-15.787,15.774c-0.001,2.981,0.833,5.883,2.413,8.396l0.376,0.597l-1.595,5.821l5.973-1.566l0.577,0.342c2.422,1.438,5.2,2.198,8.032,2.199h0.006c8.698,0,15.777-7.077,15.78-15.776C39.795,19.778,38.156,15.814,35.176,12.832z"/>
  <path fill="#40C351" d="M19.268,16.045c-0.355-0.79-0.729-0.806-1.068-0.82c-0.277-0.012-0.593-0.011-0.909-0.011c-0.316,0-0.83,0.119-1.265,0.594c-0.435,0.475-1.661,1.622-1.661,3.956c0,2.334,1.7,4.59,1.937,4.906c0.237,0.316,3.282,5.259,8.104,7.161c4.007,1.58,4.823,1.266,5.693,1.187c0.87-0.079,2.807-1.147,3.202-2.255c0.395-1.108,0.395-2.057,0.277-2.255c-0.119-0.198-0.435-0.316-0.909-0.554s-2.807-1.385-3.242-1.543c-0.435-0.158-0.751-0.237-1.068,0.238c-0.316,0.474-1.225,1.543-1.502,1.859c-0.277,0.317-0.554,0.357-1.028,0.119c-0.474-0.238-2.002-0.738-3.815-2.354c-1.41-1.257-2.362-2.81-2.639-3.285c-0.277-0.474-0.03-0.731,0.208-0.968c0.213-0.213,0.474-0.554,0.712-0.831c0.237-0.277,0.316-0.475,0.474-0.791c0.158-0.317,0.079-0.594-0.04-0.831C20.612,19.329,19.69,16.983,19.268,16.045z"/>
</svg>

