<svg xmlns="http://www.w3.org/2000/svg" viewBox="0 0 48 48">
  <path fill="#FF4A00" d="M24,4C12.954,4,4,12.954,4,24s8.954,20,20,20s20-8.954,20-20S35.046,4,24,4z"/>
  <path fill="#fff" d="M33,14H15c-0.552,0-1,0.448-1,1v3c0,0.552,0.448,1,1,1h18c0.552,0,1-0.448,1-1v-3C34,14.448,33.552,14,33,14z M29.723,21.857l-13,17c-0.396,0.519-1.144,0.619-1.664,0.223c-0.519-0.396-0.619-1.144-0.223-1.664l13-17c0.396-0.519,1.144-0.619,1.664-0.223C30.02,20.589,30.12,21.337,29.723,21.857z M33,29H15c-0.552,0-1,0.448-1,1v3c0,0.552,0.448,1,1,1h18c0.552,0,1-0.448,1-1v-3C34,29.448,33.552,29,33,29z"/>
</svg>

